<svg xmlns="http://www.w3.org/2000/svg" version="1.1" viewBox="0 0 36 36"
     class="looka-1j8o68f">
    <g id="SvgjsG10824" featurekey="inlineSymbolFeature-0"
       transform="matrix(0.5303142555043265,0,0,0.5303142555043265,0,-0.030684687147100924)" fill="#16a349">
        <path xmlns="http://www.w3.org/2000/svg" fill="#16a349"
              d="M452,776.057847 C469.846759,777.093083 484,791.893708 484,810 C484,828.106292 469.846759,842.906917 452,843.942153 L452,776.057847 Z M423.962679,831.865748 L448,807.828427 L448,822.171573 L431.585275,838.586298 C428.719489,836.736404 426.149715,834.467312 423.962679,831.865748 Z M435.206727,840.6217 L448,827.828427 L448,843.942153 C443.435662,843.67739 439.112912,842.512247 435.206727,840.6217 Z M421.548966,828.622607 C419.575883,825.614309 418.067064,822.274182 417.124354,818.704073 L448,787.828427 L448,802.171573 L421.548966,828.622607 Z M416.226429,813.945144 C416.076872,812.650842 416,811.334398 416,810 C416,791.893708 430.153241,777.093083 448,776.057847 L448,782.171573 L416.226429,813.945144 Z"
              transform="translate(-416 -776)"></path>
    </g>
    <g id="SvgjsG10825" featurekey="nameRightFeature-0" transform="matrix(1,0,0,1,165,18)" fill="#111111">
        <path d=""></path>
    </g>
</svg>
